<?xml version="1.0" encoding="UTF-8" standalone="no"?>
<!-- Created with Inkscape (http://www.inkscape.org/) -->

<svg
   width="423.01907mm"
   height="169.25198mm"
   viewBox="0 0 423.01908 169.25198"
   version="1.1"
   id="svg5"
   inkscape:version="1.2-dev (9ee32be, 2021-06-19)"
   sodipodi:docname="Banner-Tutorial.svg"
   xmlns:inkscape="http://www.inkscape.org/namespaces/inkscape"
   xmlns:sodipodi="http://sodipodi.sourceforge.net/DTD/sodipodi-0.dtd"
   xmlns="http://www.w3.org/2000/svg"
   xmlns:svg="http://www.w3.org/2000/svg"
   xmlns:ns4="http://www.iki.fi/pav/software/textext/">
  <sodipodi:namedview
     id="namedview7"
     pagecolor="#ffffff"
     bordercolor="#666666"
     borderopacity="1.0"
     inkscape:pageshadow="2"
     inkscape:pageopacity="0.0"
     inkscape:pagecheckerboard="0"
     inkscape:document-units="mm"
     showgrid="false"
     fit-margin-top="0"
     fit-margin-left="0"
     fit-margin-right="0"
     fit-margin-bottom="0"
     inkscape:zoom="0.29709947"
     inkscape:cx="824.63964"
     inkscape:cy="873.44484"
     inkscape:window-width="1391"
     inkscape:window-height="847"
     inkscape:window-x="49"
     inkscape:window-y="25"
     inkscape:window-maximized="0"
     inkscape:current-layer="layer1" />
  <defs
     id="defs2">
    <clipPath
       clipPathUnits="userSpaceOnUse"
       id="clipPath952">
      <rect
         style="fill:#000000;fill-opacity:0.5;stroke:#800000;stroke-width:0.499999"
         id="rect954"
         width="219.07648"
         height="92.617691"
         x="363.34634"
         y="149.61319" />
    </clipPath>
  </defs>
  <g
     inkscape:label="Layer 1"
     inkscape:groupmode="layer"
     id="layer1"
     transform="translate(9.3144817,-112.50267)">
    <path
       style="fill:#000000;stroke-width:0.264583"
       id="path1009"
       d="" />
    <g
       id="g6994"
       transform="matrix(0.971197,0,0,0.94397952,4.0062644,42.166372)">
      <text
         xml:space="preserve"
         style="font-size:17.6389px;line-height:1.25;font-family:Vollkorn;-inkscape-font-specification:Vollkorn;stroke-width:0.264583"
         x="18.474796"
         y="89.674934"
         id="text3390"><tspan
           sodipodi:role="line"
           id="tspan3388"
           style="font-style:normal;font-variant:normal;font-weight:normal;font-stretch:normal;font-size:17.6389px;font-family:Helvetica;-inkscape-font-specification:Helvetica;stroke-width:0.264583"
           x="18.474796"
           y="89.674934">Machines Climbing Pearl's Ladder of Causation</tspan></text>
      <g
         id="g6956"
         transform="translate(9.5399424)">
        <rect
           style="opacity:0.8;fill:#ff6600;fill-opacity:0.1;stroke:#ff6600;stroke-width:1.92016;stroke-linecap:round;stroke-opacity:0.8;paint-order:stroke fill markers"
           id="rect6823"
           width="378.70874"
           height="135.46574"
           x="5.9282708"
           y="99.053841" />
        <rect
           style="fill:#ff6600;fill-opacity:1;stroke:#ff6600;stroke-width:0.371705"
           id="rect4946"
           width="141.22452"
           height="103.06576"
           x="253.9958"
           y="148.38715" />
        <g
           transform="matrix(3.2948975,0,0,3.2948975,272.80776,204.99979)"
           ns4:version="1.5.0"
           ns4:texconverter="pdflatex"
           ns4:pdfconverter="inkscape"
           ns4:text="$X\\overset{?}{\\rightarrow} Y$"
           ns4:preamble="/Users/mzecevic/Library/Application Support/org.inkscape.Inkscape/config/inkscape/extensions/textext/default_packages.tex"
           ns4:scale="2.8346515030086077"
           ns4:alignment="middle center"
           ns4:stroke-to-path="0"
           ns4:inkscapeversion="1.2-dev"
           ns4:jacobian_sqrt="1.0"
           id="g6246">
          <defs
             id="id-802f43c7-a7a2-482e-a708-d6a0213f8c1e">
            <g
               id="id-32c3fa95-3a16-4339-8153-9b2cf02d1faf">
              <symbol
                 overflow="visible"
                 id="id-78f0a489-af0c-4f36-9030-b4103b038747">
                <path
                   style="stroke:none;stroke-width:0"
                   d=""
                   id="id-7e8270f6-48aa-4756-90a9-b1056c9afaa3" />
              </symbol>
              <symbol
                 overflow="visible"
                 id="id-e045d8e2-82fc-40ec-85d6-ad860777f94b">
                <path
                   style="stroke:none;stroke-width:0"
                   d="M 4.828125,-4.09375 4,-6.078125 c -0.03125,-0.078125 -0.046875,-0.125 -0.046875,-0.125 0,-0.0625 0.15625,-0.25 0.578125,-0.296875 0.109375,-0.015625 0.203125,-0.015625 0.203125,-0.1875 0,-0.125 -0.125,-0.125 -0.15625,-0.125 -0.40625,0 -0.828125,0.03125 -1.25,0.03125 -0.25,0 -0.859375,-0.03125 -1.109375,-0.03125 -0.0625,0 -0.1875,0 -0.1875,0.203125 C 2.03125,-6.5 2.140625,-6.5 2.265625,-6.5 c 0.59375,0 0.65625,0.09375 0.75,0.3125 l 1.171875,2.78125 -2.109375,2.265625 -0.125,0.109375 C 1.46875,-0.5 1,-0.34375 0.484375,-0.3125 c -0.125,0.015625 -0.21875,0.015625 -0.21875,0.203125 0,0.015625 0,0.109375 0.140625,0.109375 0.296875,0 0.625,-0.03125 0.921875,-0.03125 C 1.703125,-0.03125 2.09375,0 2.453125,0 2.515625,0 2.625,0 2.625,-0.203125 2.625,-0.296875 2.53125,-0.3125 2.515625,-0.3125 c -0.09375,0 -0.40625,-0.03125 -0.40625,-0.3125 0,-0.15625 0.15625,-0.3125 0.265625,-0.4375 L 3.40625,-2.140625 4.296875,-3.125 l 1,2.390625 c 0.046875,0.109375 0.0625,0.109375 0.0625,0.140625 0,0.078125 -0.203125,0.25 -0.578125,0.28125 C 4.671875,-0.296875 4.578125,-0.296875 4.578125,-0.125 4.578125,0 4.6875,0 4.71875,0 5,0 5.703125,-0.03125 5.984375,-0.03125 6.234375,-0.03125 6.84375,0 7.09375,0 c 0.0625,0 0.1875,0 0.1875,-0.1875 0,-0.125 -0.109375,-0.125 -0.1875,-0.125 -0.65625,0 -0.6875,-0.03125 -0.859375,-0.4375 C 5.859375,-1.671875 5.1875,-3.234375 4.953125,-3.828125 5.625,-4.53125 6.671875,-5.71875 7,-5.984375 7.28125,-6.234375 7.671875,-6.46875 8.265625,-6.5 c 0.125,-0.015625 0.21875,-0.015625 0.21875,-0.203125 0,0 0,-0.109375 -0.125,-0.109375 -0.296875,0 -0.640625,0.03125 -0.9375,0.03125 -0.375,0 -0.75,-0.03125 -1.109375,-0.03125 -0.0625,0 -0.1875,0 -0.1875,0.203125 0,0.0625 0.046875,0.09375 0.109375,0.109375 0.09375,0.015625 0.40625,0.03125 0.40625,0.3125 0,0.140625 -0.109375,0.265625 -0.1875,0.359375 z m 0,0"
                   id="id-47075e4e-2da7-4872-8441-54953220aa16" />
              </symbol>
              <symbol
                 overflow="visible"
                 id="id-a71af0a9-5fbd-41b2-b89f-f66069fecdd2">
                <path
                   style="stroke:none;stroke-width:0"
                   d="M 5.953125,-5.671875 6.09375,-5.8125 C 6.390625,-6.109375 6.71875,-6.453125 7.390625,-6.5 7.5,-6.515625 7.59375,-6.515625 7.59375,-6.6875 c 0,-0.078125 -0.046875,-0.125 -0.125,-0.125 -0.265625,0 -0.546875,0.03125 -0.8125,0.03125 -0.34375,0 -0.6875,-0.03125 -1,-0.03125 -0.0625,0 -0.1875,0 -0.1875,0.1875 0,0.109375 0.09375,0.125 0.140625,0.125 0.078125,0 0.359375,0.015625 0.359375,0.234375 0,0.171875 -0.234375,0.421875 -0.265625,0.46875 L 3.390625,-3.125 2.296875,-6.09375 C 2.234375,-6.234375 2.234375,-6.25 2.234375,-6.265625 2.234375,-6.5 2.71875,-6.5 2.828125,-6.5 c 0.125,0 0.234375,0 0.234375,-0.203125 0,-0.109375 -0.125,-0.109375 -0.15625,-0.109375 -0.28125,0 -0.96875,0.03125 -1.25,0.03125 -0.25,0 -0.875,-0.03125 -1.125,-0.03125 -0.046875,0 -0.1875,0 -0.1875,0.203125 C 0.34375,-6.5 0.453125,-6.5 0.578125,-6.5 c 0.59375,0 0.640625,0.09375 0.734375,0.34375 L 2.53125,-2.875 c 0.015625,0.03125 0.046875,0.140625 0.046875,0.15625 0,0.03125 -0.40625,1.640625 -0.453125,1.828125 C 2,-0.34375 1.984375,-0.3125 1.1875,-0.3125 c -0.1875,0 -0.265625,0 -0.265625,0.203125 C 0.921875,0 1.03125,0 1.0625,0 c 0.265625,0 0.96875,-0.03125 1.25,-0.03125 0.28125,0 1,0.03125 1.28125,0.03125 0.0625,0 0.1875,0 0.1875,-0.203125 C 3.78125,-0.3125 3.6875,-0.3125 3.5,-0.3125 c -0.015625,0 -0.203125,0 -0.375,-0.015625 C 2.90625,-0.34375 2.84375,-0.375 2.84375,-0.484375 c 0,-0.078125 0.09375,-0.421875 0.140625,-0.625 l 0.359375,-1.40625 c 0.046875,-0.203125 0.0625,-0.21875 0.140625,-0.3125 z m 0,0"
                   id="id-f50e765a-8085-4105-bcb5-27a8cd80b3aa" />
              </symbol>
              <symbol
                 overflow="visible"
                 id="id-c6e84a26-dae6-4056-9631-a62a17260beb">
                <path
                   style="stroke:none;stroke-width:0"
                   d=""
                   id="id-1b71a693-16ce-4904-afb2-eacfaae58863" />
              </symbol>
              <symbol
                 overflow="visible"
                 id="id-759f08c8-f033-4dab-8eab-7bb9079b4eaa">
                <path
                   style="stroke:none;stroke-width:0"
                   d="m 1.890625,-1.78125 c 0,-0.609375 0.40625,-1.125 0.9375,-1.453125 0.125,-0.09375 0.4375,-0.3125 0.4375,-0.734375 0,-0.359375 -0.28125,-0.9375 -1.453125,-0.9375 -0.859375,0 -1.328125,0.453125 -1.328125,0.921875 0,0.296875 0.234375,0.359375 0.34375,0.359375 0.125,0 0.328125,-0.109375 0.328125,-0.34375 0,-0.03125 0,-0.296875 -0.328125,-0.328125 0.125,-0.1875 0.4375,-0.40625 0.953125,-0.40625 0.796875,0 0.84375,0.390625 0.84375,0.703125 0,0.375 -0.140625,0.515625 -0.25,0.609375 -0.46875,0.421875 -0.71875,1.03125 -0.71875,1.578125 v 0.28125 c 0,0.140625 0,0.171875 0.109375,0.171875 0.125,0 0.125,-0.046875 0.125,-0.1875 z m 0.28125,1.390625 c 0,-0.25 -0.203125,-0.40625 -0.40625,-0.40625 -0.234375,0 -0.40625,0.1875 -0.40625,0.390625 C 1.359375,-0.15625 1.5625,0 1.765625,0 2,0 2.171875,-0.1875 2.171875,-0.390625 Z m 0,0"
                   id="id-eefa54c1-01fc-40af-89e4-488f13c1f93e" />
              </symbol>
              <symbol
                 overflow="visible"
                 id="id-c0ce83c2-a93d-409a-a922-96159c7b4c08">
                <path
                   style="stroke:none;stroke-width:0"
                   d=""
                   id="id-89328084-eef8-4002-8b32-4893f6718623" />
              </symbol>
              <symbol
                 overflow="visible"
                 id="id-60875d72-72dc-4cae-adf8-867057812782">
                <path
                   style="stroke:none;stroke-width:0"
                   d="M 8.3125,-2.296875 C 7.765625,-1.875 7.5,-1.46875 7.421875,-1.328125 c -0.453125,0.6875 -0.53125,1.3125 -0.53125,1.3125 0,0.125 0.125,0.125 0.203125,0.125 C 7.25,0.109375 7.265625,0.09375 7.3125,-0.09375 7.53125,-1.0625 8.125,-1.90625 9.25,-2.359375 9.375,-2.40625 9.40625,-2.421875 9.40625,-2.5 c 0,-0.0625 -0.0625,-0.09375 -0.078125,-0.109375 C 8.875,-2.765625 7.671875,-3.265625 7.296875,-4.9375 7.265625,-5.0625 7.25,-5.09375 7.09375,-5.09375 c -0.078125,0 -0.203125,0 -0.203125,0.125 0,0.015625 0.09375,0.640625 0.5,1.3125 0.203125,0.296875 0.5,0.640625 0.921875,0.96875 H 0.90625 c -0.171875,0 -0.359375,0 -0.359375,0.1875 0,0.203125 0.1875,0.203125 0.359375,0.203125 z m 0,0"
                   id="id-be86560b-33bc-4ddf-9fb8-fb592210949b" />
              </symbol>
            </g>
          </defs>
          <g
             id="id-cdcb53a5-fc4c-4bdd-b5b4-2270e71ff71d"
             transform="translate(-148.978,-125.735)">
            <g
               style="fill:#000000;fill-opacity:1"
               id="id-f9412995-a737-4fd7-aad6-2c01274c67af">
              <g
                 transform="translate(148.712,136.289)"
                 id="g6230">
                <path
                   style="stroke:none;stroke-width:0"
                   d="M 4.828125,-4.09375 4,-6.078125 c -0.03125,-0.078125 -0.046875,-0.125 -0.046875,-0.125 0,-0.0625 0.15625,-0.25 0.578125,-0.296875 0.109375,-0.015625 0.203125,-0.015625 0.203125,-0.1875 0,-0.125 -0.125,-0.125 -0.15625,-0.125 -0.40625,0 -0.828125,0.03125 -1.25,0.03125 -0.25,0 -0.859375,-0.03125 -1.109375,-0.03125 -0.0625,0 -0.1875,0 -0.1875,0.203125 C 2.03125,-6.5 2.140625,-6.5 2.265625,-6.5 c 0.59375,0 0.65625,0.09375 0.75,0.3125 l 1.171875,2.78125 -2.109375,2.265625 -0.125,0.109375 C 1.46875,-0.5 1,-0.34375 0.484375,-0.3125 c -0.125,0.015625 -0.21875,0.015625 -0.21875,0.203125 0,0.015625 0,0.109375 0.140625,0.109375 0.296875,0 0.625,-0.03125 0.921875,-0.03125 C 1.703125,-0.03125 2.09375,0 2.453125,0 2.515625,0 2.625,0 2.625,-0.203125 2.625,-0.296875 2.53125,-0.3125 2.515625,-0.3125 c -0.09375,0 -0.40625,-0.03125 -0.40625,-0.3125 0,-0.15625 0.15625,-0.3125 0.265625,-0.4375 L 3.40625,-2.140625 4.296875,-3.125 l 1,2.390625 c 0.046875,0.109375 0.0625,0.109375 0.0625,0.140625 0,0.078125 -0.203125,0.25 -0.578125,0.28125 C 4.671875,-0.296875 4.578125,-0.296875 4.578125,-0.125 4.578125,0 4.6875,0 4.71875,0 5,0 5.703125,-0.03125 5.984375,-0.03125 6.234375,-0.03125 6.84375,0 7.09375,0 c 0.0625,0 0.1875,0 0.1875,-0.1875 0,-0.125 -0.109375,-0.125 -0.1875,-0.125 -0.65625,0 -0.6875,-0.03125 -0.859375,-0.4375 C 5.859375,-1.671875 5.1875,-3.234375 4.953125,-3.828125 5.625,-4.53125 6.671875,-5.71875 7,-5.984375 7.28125,-6.234375 7.671875,-6.46875 8.265625,-6.5 c 0.125,-0.015625 0.21875,-0.015625 0.21875,-0.203125 0,0 0,-0.109375 -0.125,-0.109375 -0.296875,0 -0.640625,0.03125 -0.9375,0.03125 -0.375,0 -0.75,-0.03125 -1.109375,-0.03125 -0.0625,0 -0.1875,0 -0.1875,0.203125 0,0.0625 0.046875,0.09375 0.109375,0.109375 0.09375,0.015625 0.40625,0.03125 0.40625,0.3125 0,0.140625 -0.109375,0.265625 -0.1875,0.359375 z m 0,0"
                   id="id-bd29d35e-e670-451d-a322-20d7bdb1c4c9" />
              </g>
            </g>
            <g
               style="fill:#000000;fill-opacity:1"
               id="id-b8354afc-43e0-4515-868e-72e955662a7f">
              <g
                 transform="translate(163.618,130.641)"
                 id="g6234">
                <path
                   style="stroke:none;stroke-width:0"
                   d="m 1.890625,-1.78125 c 0,-0.609375 0.40625,-1.125 0.9375,-1.453125 0.125,-0.09375 0.4375,-0.3125 0.4375,-0.734375 0,-0.359375 -0.28125,-0.9375 -1.453125,-0.9375 -0.859375,0 -1.328125,0.453125 -1.328125,0.921875 0,0.296875 0.234375,0.359375 0.34375,0.359375 0.125,0 0.328125,-0.109375 0.328125,-0.34375 0,-0.03125 0,-0.296875 -0.328125,-0.328125 0.125,-0.1875 0.4375,-0.40625 0.953125,-0.40625 0.796875,0 0.84375,0.390625 0.84375,0.703125 0,0.375 -0.140625,0.515625 -0.25,0.609375 -0.46875,0.421875 -0.71875,1.03125 -0.71875,1.578125 v 0.28125 c 0,0.140625 0,0.171875 0.109375,0.171875 0.125,0 0.125,-0.046875 0.125,-0.1875 z m 0.28125,1.390625 c 0,-0.25 -0.203125,-0.40625 -0.40625,-0.40625 -0.234375,0 -0.40625,0.1875 -0.40625,0.390625 C 1.359375,-0.15625 1.5625,0 1.765625,0 2,0 2.171875,-0.1875 2.171875,-0.390625 Z m 0,0"
                   id="id-33254253-6ee2-4ba0-99fc-354f1ab9a911" />
              </g>
            </g>
            <g
               style="fill:#000000;fill-opacity:1"
               id="id-d428688e-60ec-49e1-b0e5-30036a078dd1">
              <g
                 transform="translate(160.515,136.289)"
                 id="g6238">
                <path
                   style="stroke:none;stroke-width:0"
                   d="M 8.3125,-2.296875 C 7.765625,-1.875 7.5,-1.46875 7.421875,-1.328125 c -0.453125,0.6875 -0.53125,1.3125 -0.53125,1.3125 0,0.125 0.125,0.125 0.203125,0.125 C 7.25,0.109375 7.265625,0.09375 7.3125,-0.09375 7.53125,-1.0625 8.125,-1.90625 9.25,-2.359375 9.375,-2.40625 9.40625,-2.421875 9.40625,-2.5 c 0,-0.0625 -0.0625,-0.09375 -0.078125,-0.109375 C 8.875,-2.765625 7.671875,-3.265625 7.296875,-4.9375 7.265625,-5.0625 7.25,-5.09375 7.09375,-5.09375 c -0.078125,0 -0.203125,0 -0.203125,0.125 0,0.015625 0.09375,0.640625 0.5,1.3125 0.203125,0.296875 0.5,0.640625 0.921875,0.96875 H 0.90625 c -0.171875,0 -0.359375,0 -0.359375,0.1875 0,0.203125 0.1875,0.203125 0.359375,0.203125 z m 0,0"
                   id="id-59d5147c-c375-4759-9509-b9d44b039907" />
              </g>
            </g>
            <g
               style="fill:#000000;fill-opacity:1"
               id="id-f23df43f-89d4-4d13-bb4f-12726699fa1c">
              <g
                 transform="translate(173.245,136.289)"
                 id="g6242">
                <path
                   style="stroke:none;stroke-width:0"
                   d="M 5.953125,-5.671875 6.09375,-5.8125 C 6.390625,-6.109375 6.71875,-6.453125 7.390625,-6.5 7.5,-6.515625 7.59375,-6.515625 7.59375,-6.6875 c 0,-0.078125 -0.046875,-0.125 -0.125,-0.125 -0.265625,0 -0.546875,0.03125 -0.8125,0.03125 -0.34375,0 -0.6875,-0.03125 -1,-0.03125 -0.0625,0 -0.1875,0 -0.1875,0.1875 0,0.109375 0.09375,0.125 0.140625,0.125 0.078125,0 0.359375,0.015625 0.359375,0.234375 0,0.171875 -0.234375,0.421875 -0.265625,0.46875 L 3.390625,-3.125 2.296875,-6.09375 C 2.234375,-6.234375 2.234375,-6.25 2.234375,-6.265625 2.234375,-6.5 2.71875,-6.5 2.828125,-6.5 c 0.125,0 0.234375,0 0.234375,-0.203125 0,-0.109375 -0.125,-0.109375 -0.15625,-0.109375 -0.28125,0 -0.96875,0.03125 -1.25,0.03125 -0.25,0 -0.875,-0.03125 -1.125,-0.03125 -0.046875,0 -0.1875,0 -0.1875,0.203125 C 0.34375,-6.5 0.453125,-6.5 0.578125,-6.5 c 0.59375,0 0.640625,0.09375 0.734375,0.34375 L 2.53125,-2.875 c 0.015625,0.03125 0.046875,0.140625 0.046875,0.15625 0,0.03125 -0.40625,1.640625 -0.453125,1.828125 C 2,-0.34375 1.984375,-0.3125 1.1875,-0.3125 c -0.1875,0 -0.265625,0 -0.265625,0.203125 C 0.921875,0 1.03125,0 1.0625,0 c 0.265625,0 0.96875,-0.03125 1.25,-0.03125 0.28125,0 1,0.03125 1.28125,0.03125 0.0625,0 0.1875,0 0.1875,-0.203125 C 3.78125,-0.3125 3.6875,-0.3125 3.5,-0.3125 c -0.015625,0 -0.203125,0 -0.375,-0.015625 C 2.90625,-0.34375 2.84375,-0.375 2.84375,-0.484375 c 0,-0.078125 0.09375,-0.421875 0.140625,-0.625 l 0.359375,-1.40625 c 0.046875,-0.203125 0.0625,-0.21875 0.140625,-0.3125 z m 0,0"
                   id="id-25cddabc-c79d-4445-ab31-d86438b50938" />
              </g>
            </g>
          </g>
        </g>
        <path
           style="fill:#000000;stroke:#ff6600;stroke-width:1.26907"
           d="m 27.44581,206.15201 c -1.395969,-0.5856 -4.187811,-1.70755 -6.204109,-2.49316 -5.841254,-2.27608 -3.077136,-2.81727 3.77397,-0.7389 12.112514,3.67439 29.943394,1.37103 37.154674,-4.79955 1.14319,-0.9782 3.22064,-2.14763 4.61661,-2.59874 5.5882,-1.80583 -6.60787,6.93303 -13.02845,9.33525 -7.02642,2.62896 -21.441913,3.33845 -26.312695,1.2951 z m -11.815276,-8.9594 c -6.1518748,-3.75071 -8.1286498,-9.54097 -7.1068068,-20.81722 0.765231,-8.44431 0.59251,-9.53599 -1.903341,-12.03184 -2.84609,-2.84609 -5.190515,-2.57724 -5.190515,0.5952 0,2.97914 -2.17256804,2.09937 -5.153439,-2.08686 -2.364907,-3.32123 -2.522519,-4.17543 -1.038199,-5.62733 0.962414,-0.94145 3.355332,-2.10551 5.31757396,-2.58684 2.94710404,-0.72292 3.68835304,-0.41345 4.26148504,1.77806 0.3818,1.45928 1.74923,2.98816 3.039196,3.39759 1.289967,0.40962 3.7981918,2.47096 5.5738028,4.58117 2.672073,3.17551 3.228417,5.14653 3.228417,11.43722 0,8.76648 1.554781,12.5099 5.19584,12.5099 1.412613,0 2.24557,-0.52234 1.851011,-1.1607 -0.39475,-0.63837 9.6e-5,-1.45151 0.876942,-1.80698 1.253177,-0.50805 1.23212,-0.90069 -0.09833,-1.83538 -1.374385,-0.96543 -1.314669,-1.33414 0.317047,-1.96042 2.372245,-0.91032 2.726706,-5.90691 0.42353,-5.97219 -0.872481,-0.024 -0.234548,-0.79454 1.417984,-1.71072 2.618066,-1.45156 2.725699,-1.77259 0.837275,-2.49729 -1.191879,-0.4571 -2.686607,-0.51044 -3.321614,-0.11799 -0.635006,0.39235 -1.154513,-0.74787 -1.154513,-2.53403 0,-2.58435 -0.623687,-3.24756 -3.053874,-3.24756 -2.347064,0 -2.911706,-0.54368 -2.439588,-2.34898 0.783794,-2.99728 -2.650393,-6.45002 -7.350228,-7.38999 -2.0098228,-0.40195 -3.6542498,-1.11854 -3.6542498,-1.59234 0,-2.00431 8.5985618,-8.77689 12.6907298,-9.99573 2.442946,-0.72762 8.987269,-1.71191 14.542941,-2.18734 9.183304,-0.78581 9.947624,-0.67928 8.410824,1.17245 -1.46139,1.76089 -1.325506,2.03678 1.00314,2.03678 1.48144,0 2.69356,0.59122 2.69356,1.31376 0,0.85449 0.96717,0.79607 2.76686,-0.16692 2.66463,-1.42609 2.67979,-1.54442 0.41009,-3.20414 -2.19496,-1.605 -2.07994,-1.77878 1.67489,-2.52972 4.63796,-0.92759 4.87069,-1.43108 1.81086,-3.91782 -1.97883,-1.60821 -1.66769,-1.71718 2.8554,-0.99982 4.75859,0.75472 4.91745,0.68278 2.53815,-1.15001 -2.98293,-2.29775 -2.16201,-2.52256 2.7728,-0.75938 3.33231,1.19063 3.4069,1.14795 1.1091,-0.63457 -1.35487,-1.05106 -1.82219,-1.91097 -1.03849,-1.91097 2.18307,0 12.35685,9.06512 14.73528,13.12956 1.16243,1.98637 3.25077,3.90899 4.64079,4.27252 2.54909,0.66657 3.40176,4.74195 1.55612,7.43733 -1.26387,1.84583 -5.37408,3.27758 -5.37408,1.87207 0,-1.10789 -4.81595,-2.51547 -10.88643,-3.18185 -3.76798,-0.41345 -3.85254,0.92592 -0.4101,6.49579 2.66867,4.31794 2.86259,10.75372 0.53649,17.80277 -0.83728,2.53734 -0.44128,2.81031 4.60472,3.17269 4.59623,0.32999 5.54358,0.84576 5.65659,3.07929 0.0748,1.47554 0.51125,3.29044 0.97023,4.03308 0.89099,1.44163 -0.85229,2.17228 -8.35269,3.50076 -3.68188,0.65208 -5.4302,0.2662 -8.01814,-1.76938 -2.83727,-2.23175 -3.78951,-2.38639 -6.67249,-1.08357 -3.15354,1.42513 -3.1934,1.54423 -0.64023,1.91322 3.26837,0.47245 5.98299,3.42042 4.84497,5.26174 -1.02942,1.66568 -16.23149,1.7523 -17.881868,0.10217 -0.784273,-0.78423 -3.03699,-0.57663 -6.281908,0.57884 -7.136593,2.54132 -13.2606,2.31929 -18.143517,-0.65769 z m 31.485851,-46.28852 c 0,-1.04698 -0.57107,-1.90363 -1.26905,-1.90363 -0.69799,0 -1.26911,0.85665 -1.26911,1.90363 0,1.04698 0.57112,1.90358 1.26911,1.90358 0.69798,0 1.26905,-0.8566 1.26905,-1.90358 z m 173.475895,43.85536 c 0.37556,-1.43583 1.22905,-2.61058 1.89682,-2.61058 1.68482,0 0.73233,4.1186 -1.09303,4.72631 -0.94558,0.31465 -1.23807,-0.45519 -0.80379,-2.11573 z M 4.8430972,189.95098 c -5.39182404,-7.79161 -9.835479,-23.68044 -5.951382,-21.2799 0.69798396,0.43121 1.26910196,2.38841 1.26910196,4.34898 0,1.96056 1.99183604,7.45426 4.42638704,12.20815 2.434504,4.75389 4.232562,8.83724 3.995712,9.07409 -0.236947,0.23694 -1.919793,-1.72122 -3.739819,-4.35132 z m 98.1123828,-1.68424 c 0,-3.95701 0.48689,-6.11931 1.26905,-5.63592 0.69799,0.4312 1.26905,2.74944 1.26905,5.15119 0,3.52081 0.49179,4.36686 2.53816,4.36686 1.39597,0 2.53816,0.57107 2.53816,1.26905 0,0.69799 -1.71326,1.26906 -3.80721,1.26906 -3.72855,0 -3.80721,-0.13287 -3.80721,-6.42024 z m 12.101,5.22375 c -0.48013,-0.77688 0.27052,-1.34162 1.78386,-1.34162 2.2025,0 2.61303,-0.79756 2.61303,-5.07631 0,-2.79194 0.60239,-5.07627 1.3386,-5.07627 0.80519,0 1.18445,2.40218 0.95182,6.02808 -0.32473,5.05972 -0.82629,6.09072 -3.12247,6.41794 -1.50461,0.2144 -3.10879,-0.21393 -3.56484,-0.95182 z m 11.53876,-0.74259 c -1.25673,-3.27504 -0.92817,-10.75161 0.47245,-10.75161 0.69799,0 1.26906,2.28433 1.26906,5.07627 0,4.23026 0.42305,5.07631 2.53815,5.07631 2.04637,0 2.53816,-0.84605 2.53816,-4.36686 0,-2.40175 0.60459,-4.74051 1.34354,-5.19719 0.89325,-0.55207 1.21222,1.2304 0.95177,5.31863 -0.37317,5.85924 -0.57846,6.16718 -4.3542,6.53459 -2.74935,0.26764 -4.20638,-0.2499 -4.75903,-1.69014 z m 13.16323,-4.40624 c 0,-5.7401 0.27244,-6.3435 2.85544,-6.32594 4.05591,0.0288 5.55045,1.34968 6.34278,5.61098 1.01896,5.48012 -0.0758,7.06028 -4.89222,7.06028 h -4.306 z m 7.61442,2.53811 c 0,-0.69799 -1.14214,-1.26906 -2.53811,-1.26906 -1.39602,0 -2.53815,0.57107 -2.53815,1.26906 0,0.69798 1.14213,1.2691 2.53815,1.2691 1.39597,0 2.53811,-0.57112 2.53811,-1.2691 z m -1.26906,-5.07627 c 0,-0.69798 -0.8566,-1.26905 -1.90362,-1.26905 -1.04698,0 -1.90358,0.57107 -1.90358,1.26905 0,0.69799 0.8566,1.26906 1.90358,1.26906 1.04702,0 1.90362,-0.57107 1.90362,-1.26906 z m 7.61442,2.46324 c 0,-3.95701 0.48689,-6.11931 1.26906,-5.63592 0.69798,0.4312 1.2691,2.74944 1.2691,5.15119 0,3.52081 0.49173,4.36686 2.53811,4.36686 1.39597,0 2.53815,0.57107 2.53815,1.26905 0,0.69799 -1.71325,1.26906 -3.80721,1.26906 -3.72854,0 -3.80721,-0.13287 -3.80721,-6.42024 z m 12.10101,5.22375 c -0.48013,-0.77688 0.271,-1.34162 1.78386,-1.34162 2.20249,0 2.61303,-0.79756 2.61303,-5.07631 0,-2.79194 0.60239,-5.07627 1.3386,-5.07627 0.80518,0 1.18449,2.40218 0.95181,6.02808 -0.32472,5.05972 -0.82624,6.09072 -3.12246,6.41794 -1.50461,0.2144 -3.10879,-0.21393 -3.56484,-0.95182 z m 13.02528,-4.83159 c 1.23097,-3.31543 2.74378,-6.02808 3.36176,-6.02808 1.35448,0 5.06998,10.64791 4.06588,11.65205 -0.38851,0.38852 -1.68174,-0.26908 -2.87395,-1.46134 -1.96287,-1.96287 -2.27426,-1.97716 -3.29619,-0.15109 -2.48314,4.43718 -3.35812,1.64606 -1.2575,-4.01154 z m 12.99737,-0.63453 0.0513,-6.6626 3.75565,4.39382 3.75565,4.39377 v -4.07653 c 5e-5,-2.24207 0.57111,-4.07654 1.2691,-4.07654 0.69798,0 1.2691,2.8554 1.2691,6.34537 0,3.48992 -0.42833,6.3505 -0.95181,6.35678 -0.52349,0.005 -2.43623,-1.79446 -4.2505,-4.00166 l -3.29869,-4.01312 0.58733,4.00166 c 0.35878,2.44529 0.0384,4.00166 -0.82581,4.00166 -0.86519,0 -1.39309,-2.58329 -1.36153,-6.66261 z m 14.35454,5.07626 c 0.36165,-0.87248 1.35639,-3.72787 2.21022,-6.34531 0.85382,-2.61749 1.98588,-4.75903 2.51566,-4.75903 1.30785,0 5.54056,11.28445 4.58946,12.23555 -0.41633,0.41633 -1.74525,-0.23071 -2.95276,-1.43813 -2.00896,-2.00891 -2.32236,-2.02177 -3.69027,-0.15109 -1.76659,2.41599 -3.61569,2.73289 -2.67231,0.45806 z m 30.91565,0.79857 c -1.79288,-1.79288 -0.84318,-2.65576 2.26835,-2.06095 1.74501,0.33335 3.17268,0.2403 3.17268,-0.20721 0,-0.44751 -1.42767,-1.35669 -3.17268,-2.02014 -1.89274,-0.71961 -3.17263,-2.20834 -3.17263,-3.69027 0,-2.74925 3.57309,-4.4213 6.80108,-3.18261 3.31499,1.27208 2.40985,3.19624 -1.09029,2.31776 -3.94904,-0.99115 -4.18254,0.97205 -0.31705,2.66785 4.02185,1.76448 3.77939,6.22128 -0.36453,6.70453 -1.7711,0.20673 -3.6271,-0.0336 -4.1245,-0.52877 z m 11.7864,-5.55754 c 0,-3.48997 0.57107,-6.34537 1.26905,-6.34537 0.69799,0 1.26911,2.28433 1.26911,5.07627 0,4.23026 0.42305,5.07631 2.5381,5.07631 1.39597,0 2.53816,0.57107 2.53816,1.26905 0,0.69799 -1.71326,1.26906 -3.80721,1.26906 -3.7226,0 -3.80721,-0.14102 -3.80721,-6.34532 z m 12.73534,3.89062 c -1.89903,-3.54834 -1.62615,-5.75262 1.00707,-8.1357 3.29422,-2.98121 6.17312,-2.6056 8.61707,1.12439 1.69201,2.58228 1.82962,3.8463 0.69098,6.34532 -1.80885,3.97 -8.3218,4.39051 -10.31512,0.66599 z m 8.21134,-1.36383 c 1.36522,-2.20902 -0.70552,-6.334 -3.17969,-6.334 -2.47422,0 -4.54495,4.12498 -3.17973,6.334 0.43552,0.70422 1.86612,1.28042 3.17973,1.28042 1.31357,0 2.74446,-0.5762 3.17969,-1.28042 z m 9.4897,0.58992 c -2.20878,-5.80965 -2.81443,-9.46208 -1.56893,-9.46208 0.67266,0 1.8123,1.856 2.53254,4.1245 l 1.30949,4.12445 1.69047,-4.12445 c 1.51464,-3.69555 3.67214,-5.5845 3.67214,-3.21513 0,2.25622 -4.26891,11.78132 -5.28011,11.78132 -0.62042,0 -1.68045,-1.45286 -2.3556,-3.22861 z m 11.44292,-3.11671 v -6.34537 h 4.44174 c 2.44295,0 4.44174,0.57107 4.44174,1.26906 0,0.69798 -1.42768,1.2691 -3.17269,1.2691 -1.74496,0 -3.17263,0.57107 -3.17263,1.26905 0,0.69799 1.14214,1.26906 2.53811,1.26906 1.39597,0 2.53815,0.57111 2.53815,1.2691 0,0.69798 -1.14218,1.26905 -2.53815,1.26905 -1.39597,0 -2.53811,0.57107 -2.53811,1.26906 0,0.69798 1.10842,1.2691 2.46323,1.2691 1.35477,0 2.81616,0.57107 3.24756,1.26905 0.4667,0.75526 -1.04439,1.26906 -3.73229,1.26906 h -4.51666 z m 11.42163,0.7094 c 0,-3.09973 0.52541,-5.96064 1.16756,-6.3575 0.64216,-0.39667 2.63462,1.13988 4.42769,3.41505 l 3.26007,4.13663 0.0144,-4.12445 c 0.01,-2.2685 0.58517,-4.1245 1.28315,-4.1245 0.69799,0 1.26906,2.8554 1.26906,6.34537 0,3.48992 -0.52968,6.34532 -1.17711,6.34532 -0.64738,0 -2.63984,-1.856 -4.42763,-4.12445 l -3.25063,-4.1245 -0.0144,4.1245 c -0.01,2.26845 -0.58517,4.12445 -1.28315,4.12445 -0.69799,0 -1.26906,-2.53615 -1.26906,-5.63592 z m 15.22884,-0.7094 c 0,-3.48997 0.57107,-6.34537 1.26905,-6.34537 0.69799,0 1.26911,2.8554 1.26911,6.34537 0,3.48992 -0.57112,6.34532 -1.26911,6.34532 -0.69798,0 -1.26905,-2.8554 -1.26905,-6.34532 z m 6.34537,5.43595 c 0,-2.07122 4.22757,-11.78132 5.1294,-11.78132 1.32345,0 5.22438,11.66107 4.21117,12.58866 -0.44271,0.40531 -1.05954,0.024 -1.37112,-0.84974 -0.67093,-1.87859 -5.43135,-2.15669 -5.43135,-0.31705 0,0.69799 -0.57107,1.26906 -1.26905,1.26906 -0.69799,0 -1.26905,-0.40914 -1.26905,-0.90937 z M 76.810605,179.33933 c 0.49797,-1.67963 1.2372,-6.62313 1.6427,-10.98553 0.78648,-8.46033 2.92796,-10.95978 2.92796,-3.4174 0,5.7694 -2.45637,15.59049 -4.1632,16.64538 -0.85166,0.52637 -0.99484,-0.26141 -0.40722,-2.24245 z m 26.144875,-10.03372 c 0,-0.83674 39.34115,-1.2691 115.48533,-1.2691 76.1442,0 115.48535,0.43216 115.48535,1.2691 0,0.83675 -39.34115,1.26906 -115.48535,1.26906 -76.14418,0 -115.48533,-0.43217 -115.48533,-1.26906 z m 83.79443,-6.48902 c -4.58102,-1.82818 -4.98834,-3.10054 -4.92992,-15.39983 0.0384,-8.10131 0.56752,-11.67536 1.92968,-13.03756 2.26902,-2.26898 5.71505,-2.42554 7.78685,-0.35399 2.14326,2.14327 1.89648,6.09154 -0.38084,6.09154 -1.04698,0 -1.90363,-0.57107 -1.90363,-1.26905 0,-0.69799 -0.57107,-1.26911 -1.26906,-1.26911 -0.69798,0 -1.26905,1.42773 -1.26905,3.17269 0,2.7799 0.54992,3.17268 4.44174,3.17268 4.34974,0 6.19029,2.57677 3.17268,4.44174 -0.69798,0.4312 -1.2691,4.17711 -1.2691,8.32386 0,8.00006 -0.47054,8.45697 -6.30949,6.12679 z m 2.50228,-9.44926 c 0,-2.40175 -0.57107,-4.36687 -1.26905,-4.36687 -0.69799,0 -1.26905,2.31805 -1.26905,5.15119 0,3.11095 0.50262,4.84051 1.26905,4.36686 0.69798,-0.4312 1.26905,-2.74939 1.26905,-5.15118 z m -86.29671,-5.00139 v -14.59432 h 5.71079 c 4.23026,0 5.71084,0.49356 5.71084,1.90363 0,1.26906 -1.26911,1.90358 -3.80721,1.90358 -3.21499,0 -3.80721,0.49356 -3.80721,3.17269 0,2.32663 0.67683,3.17268 2.5381,3.17268 1.41007,0 2.53816,0.84605 2.53816,1.90363 0,1.05753 -1.12809,1.90358 -2.53816,1.90358 -2.10795,0 -2.5381,0.84605 -2.5381,4.99199 0,4.49833 0.3439,5.0317 3.47908,5.39355 2.09832,0.24222 3.64624,1.28296 3.90026,2.62243 0.35158,1.85278 -0.5408,2.22087 -5.38271,2.22087 h -5.80384 z m 15.48262,13.07142 c -1.93318,-1.93317 -1.98536,-6.09153 -0.0763,-6.09153 0.79555,0 2.13664,0.94385 2.98015,2.0975 1.79053,2.44865 4.45695,1.2857 4.45695,-1.94397 0,-1.22914 -1.9988,-4.56994 -4.44179,-7.424 -5.55586,-6.49084 -6.06731,-12.3484 -1.26905,-14.53464 4.14924,-1.89053 9.51805,0.37173 9.51805,4.01092 0,3.10203 -2.32107,3.34737 -4.42658,0.46766 -1.72933,-2.36496 -4.45695,-1.32374 -4.45695,1.70131 0,1.09571 1.9988,4.2046 4.44174,6.90866 7.13256,7.89487 5.66791,16.33078 -2.83539,16.33078 -1.3023,0 -3.05306,-0.68527 -3.89067,-1.52288 z m 15.70023,-0.47149 c -2.32193,-2.32193 -2.64339,-5.62019 -0.54785,-5.62019 0.79554,0 2.13664,0.94386 2.98015,2.09751 0.84356,1.1536 2.19147,1.691 2.99536,1.19418 2.69567,-1.66606 1.49794,-6.11648 -2.9802,-11.07321 -2.44295,-2.70407 -4.44174,-6.25404 -4.44174,-7.88883 0,-3.59568 3.6531,-7.1729 7.32514,-7.1729 2.43422,0 6.63464,4.19606 6.63464,6.62773 0,1.92948 -4.81864,0.95042 -5.62167,-1.14223 -0.74974,-1.95376 -0.98443,-1.96143 -2.85261,-0.0931 -1.86818,1.86819 -1.65167,2.48434 2.63169,7.48842 5.76072,6.73014 6.75805,10.27997 4.04962,14.41358 -2.38424,3.63885 -7.15458,4.18714 -10.17253,1.16919 z m 14.50366,0.0336 c 0,-1.07853 0.94817,-7.6702 2.10705,-14.64817 1.70074,-10.24064 2.49609,-12.61265 4.12445,-12.30054 1.48197,0.28395 2.58981,3.58269 4.1738,12.42731 2.68877,15.01328 2.72791,16.48235 0.43936,16.48235 -1.14933,0 -2.13875,-1.79614 -2.62161,-4.75902 -0.42641,-2.61744 -1.27035,-5.90117 -1.87519,-7.29713 -0.99196,-2.28946 -1.10813,-2.21176 -1.1856,0.79314 -0.16212,6.2821 -1.6732,11.26301 -3.4172,11.26301 -0.95973,0 -1.74496,-0.88241 -1.74496,-1.96095 z m 15.22884,-12.63336 c 0,-12.12666 0.32184,-14.59431 1.90358,-14.59431 1.58174,0 1.90363,2.46765 1.90363,14.59431 0,12.12666 -0.32185,14.59431 -1.90363,14.59431 -1.58174,0 -1.90358,-2.46765 -1.90358,-14.59431 z m 44.8726,9.83529 c 0.43312,-2.61744 1.49041,-9.18489 2.34984,-14.59431 1.27049,-7.99694 1.98455,-9.83529 3.8205,-9.83529 1.28291,0 2.28236,0.95906 2.31445,2.22087 0.0288,1.22152 1.09561,7.78891 2.36562,14.59431 2.22346,11.91437 2.22423,12.37344 0.0192,12.37344 -1.73858,0 -2.49346,-1.37098 -3.14424,-5.71079 -0.88375,-5.8932 -3.09297,-7.91271 -3.12366,-2.85544 -0.0288,4.97812 -1.48346,8.56623 -3.4694,8.56623 -1.51449,0 -1.75484,-1.00836 -1.13437,-4.75902 z m 16.99453,3.38828 c -1.86531,-1.0864 -2.22087,-3.19911 -2.22087,-13.19599 0,-12.50923 1.32776,-15.89095 6.23931,-15.89095 2.47288,0 6.45142,3.77911 6.45142,6.12799 0,1.81331 -3.35399,1.9774 -4.44179,0.21728 -0.4312,-0.69798 -1.6072,-1.2691 -2.61303,-1.2691 -1.4387,0 -1.8287,2.14926 -1.8287,10.0777 0,10.04984 1.6486,14.03965 4.03739,9.77107 1.40216,-2.5055 4.84613,-2.77194 4.84613,-0.37461 0,2.18777 -4.09778,5.91915 -6.44528,5.86888 -0.99206,-0.0192 -2.80306,-0.62066 -4.02458,-1.33212 z m 13.01756,-1.48465 c 0.01,-2.83751 1.92847,-16.1678 3.28837,-22.84326 0.85685,-4.20633 4.01888,-4.6158 4.90019,-0.63453 1.08539,4.9033 4.49258,24.0183 4.49258,25.20428 0,0.6209 -0.84577,1.1289 -1.87946,1.1289 -1.86267,0 -2.24001,-0.95973 -4.24167,-10.7871 l -1.03393,-5.07626 -0.92721,7.93165 c -0.66139,5.65746 -1.45502,7.93171 -2.76786,7.93171 -1.06554,0 -1.83658,-1.20233 -1.83101,-2.85539 z m 15.21924,-11.73892 c 0,-12.12666 0.32185,-14.59431 1.90363,-14.59431 1.58174,0 1.90358,2.46765 1.90358,14.59431 0,12.12666 -0.32184,14.59431 -1.90358,14.59431 -1.58173,0 -1.90363,-2.46765 -1.90363,-14.59431 z m 17.767,10.15588 c 0,-5.18197 2.29746,-10.29977 6.21542,-13.84548 3.44748,-3.11992 3.52029,-7.0975 0.12999,-7.0975 -1.39602,0 -2.53816,0.57112 -2.53816,1.2691 0,0.69798 -0.8566,1.26905 -1.90362,1.26905 -2.99512,0 -2.22457,-3.53836 1.2691,-5.82753 2.93899,-1.9257 3.40632,-1.9257 6.34531,0 4.43272,2.90441 4.03011,7.22048 -1.32838,14.24047 -5.60666,7.34515 -5.34074,9.85529 1.10036,10.38712 7.1022,0.58642 5.12691,3.33318 -2.72709,3.79225 l -6.56289,0.38372 z m 17.8116,1.98373 c -0.72255,-1.35011 -1.31371,-6.81292 -1.31371,-12.13961 0,-11.49257 1.30416,-14.59431 6.13619,-14.59431 5.65879,0 6.55454,1.99452 6.55454,14.59431 0,7.29013 -0.56157,12.11012 -1.52289,13.07143 -2.41311,2.41311 -8.36521,1.85024 -9.85413,-0.93182 z m 7.30552,-12.66228 c 0.33576,-9.48817 0.15685,-10.43025 -1.90363,-10.03727 -1.87753,0.3583 -2.34001,1.95778 -2.65346,9.17807 -0.42065,9.68636 0.22783,12.64085 2.60118,11.85509 1.05532,-0.34918 1.70947,-4.02703 1.95591,-10.99589 z m 7.88576,12.26159 c 0.0144,-5.36041 2.52319,-11.92363 5.70182,-14.90978 3.17067,-2.97871 4.32048,-7.61624 1.88833,-7.61624 -0.70748,0 -2.39474,0.69223 -3.74951,1.53833 -2.90499,1.81417 -4.23357,0.9439 -3.09373,-2.02647 1.45141,-3.78241 5.39791,-5.00681 8.84913,-2.74546 4.27304,2.7998 4.0065,7.88585 -0.71338,13.6119 -2.09055,2.53618 -3.94655,5.95003 -4.12445,7.58631 -0.28204,2.59168 0.2897,3.02581 4.4355,3.36895 3.11306,0.25757 4.75897,1.02573 4.75897,2.22087 0,1.36848 -1.75167,1.82698 -6.97989,1.82698 -6.39443,0 -6.97927,-0.23934 -6.97279,-2.85539 z m 18.01372,1.33251 c -2.1175,-2.11751 -1.90396,-4.82248 0.38084,-4.82248 1.04703,0 1.90363,0.57111 1.90363,1.2691 0,0.69798 1.14214,1.26905 2.53816,1.26905 2.1151,0 2.53811,-0.84605 2.53811,-5.07626 0,-3.66624 -0.52877,-5.07631 -1.90358,-5.07631 -1.05758,0 -1.90363,-1.12804 -1.90363,-2.53811 0,-1.41007 0.84605,-2.53816 1.90363,-2.53816 1.18444,0 1.90358,-1.19854 1.90358,-3.17268 0,-2.32663 -0.67684,-3.17268 -2.53811,-3.17268 -1.39602,0 -2.53816,0.57112 -2.53816,1.2691 0,0.69798 -0.8566,1.26905 -1.90363,1.26905 -1.0653,0 -1.90358,-1.13153 -1.90358,-2.56957 0,-3.48728 5.30947,-5.46243 9.52304,-3.54259 3.05862,1.39362 3.16765,1.86445 3.16765,13.67646 0,13.22031 -0.85493,15.27896 -6.34532,15.27896 -1.8148,0 -3.98492,-0.68527 -4.82248,-1.52288 z M -1.1082848,152.23435 c 0,-2.76613 6.232408,-12.97972 10.601142,-17.37306 8.4203238,-8.46771 17.0933748,-11.88617 30.0091078,-11.82808 7.3627,0.0336 12.35972,0.7434 15.74096,2.23751 6.7441,2.9801 4.86191,4.19726 -2.57303,1.6639 -9.05331,-3.08476 -21.318212,-2.65836 -29.208429,1.01542 -8.538509,3.97566 -15.7086298,10.57174 -19.2926108,17.74795 -2.576336,5.15862 -5.27714,8.50388 -5.27714,6.53636 z"
           id="path1083" />
      </g>
    </g>
  </g>
</svg>
